<svg xmlns="http://www.w3.org/2000/svg" xmlns:svg="http://www.w3.org/2000/svg" id="svg1901" width="304.724" height="191.339" version="1.1"><defs id="defs1903"><marker id="Arrow1Mend" orient="auto" overflow="visible" refX="0" refY="0"><path id="path3665" fill-rule="evenodd" stroke="#000" stroke-width="1pt" marker-start="none" d="M 0.0,0.0 L 5.0,-5.0 L -12.5,0.0 L 5.0,5.0 L 0.0,0.0 z" transform="scale(0.4) rotate(180) translate(10,0)"/></marker><marker id="Arrow1Mendi" orient="auto" overflow="visible" refX="0" refY="0"><path id="path4119" fill="#ff1717" fill-rule="evenodd" stroke="#ff1717" stroke-width="1pt" marker-start="none" d="M 0.0,0.0 L 5.0,-5.0 L -12.5,0.0 L 5.0,5.0 L 0.0,0.0 z" transform="scale(0.4) rotate(180) translate(10,0)"/></marker></defs><metadata id="metadata1906"/><g id="layer1" transform="translate(0,-861.0225)"><rect id="rect3753-3-5" width="25.456" height="23.335" x="219.203" y="946.649" fill="#7e7e7e" fill-opacity="1" stroke="none"/><rect id="rect3753-3" width="25.456" height="23.335" x="14.496" y="945.941" fill="#7e7e7e" fill-opacity="1" stroke="none"/><rect id="rect3753" width="280.721" height="23.335" x="12.021" y="30.825" fill="#7e7e7e" fill-opacity="1" stroke="none" stroke-dasharray="none" stroke-dashoffset="0" stroke-miterlimit="4" stroke-opacity="1" stroke-width="2.5" transform="translate(0,861.0225)"/><rect id="rect2819" width="279" height="23" x="13" y="892.361" fill="none" stroke="#000" stroke-dasharray="none" stroke-miterlimit="4" stroke-opacity="1" stroke-width="2.5"/><path id="path3593" fill="none" stroke="#000" stroke-dasharray="none" stroke-linecap="butt" stroke-linejoin="miter" stroke-miterlimit="4" stroke-opacity="1" stroke-width="2.5" d="m 38.890873,30.118231 c 0,24.041631 0.707107,24.041631 0.707107,24.041631" transform="translate(0,861.0225)"/><path id="path3593-7" fill="none" stroke="#000" stroke-dasharray="none" stroke-linecap="butt" stroke-linejoin="miter" stroke-miterlimit="4" stroke-opacity="1" stroke-width="2.5" d="m 64.146447,890.84026 c 0,24.04163 0.707107,24.04163 0.707107,24.04163"/><path id="path3593-9" fill="none" stroke="#000" stroke-dasharray="none" stroke-linecap="butt" stroke-linejoin="miter" stroke-miterlimit="4" stroke-opacity="1" stroke-width="2.5" d="m 90.146447,890.84026 c 0,24.04163 0.707107,24.04163 0.707107,24.04163"/><path id="path3593-2" fill="none" stroke="#000" stroke-dasharray="none" stroke-linecap="butt" stroke-linejoin="miter" stroke-miterlimit="4" stroke-opacity="1" stroke-width="2.5" d="m 116.14645,890.84026 c 0,24.04163 0.7071,24.04163 0.7071,24.04163"/><path id="path3593-3" fill="none" stroke="#000" stroke-dasharray="none" stroke-linecap="butt" stroke-linejoin="miter" stroke-miterlimit="4" stroke-opacity="1" stroke-width="2.5" d="m 142.14645,890.84026 c 0,24.04163 0.7071,24.04163 0.7071,24.04163"/><path id="path3593-1" fill="none" stroke="#000" stroke-dasharray="none" stroke-linecap="butt" stroke-linejoin="miter" stroke-miterlimit="4" stroke-opacity="1" stroke-width="2.5" d="m 168.14645,890.84026 c 0,24.04163 0.7071,24.04163 0.7071,24.04163"/><path id="path3593-21" fill="none" stroke="#000" stroke-dasharray="none" stroke-linecap="butt" stroke-linejoin="miter" stroke-miterlimit="4" stroke-opacity="1" stroke-width="2.5" d="m 194.14645,890.84026 c 0,24.04163 0.7071,24.04163 0.7071,24.04163"/><path id="path3593-4" fill="none" stroke="#000" stroke-dasharray="none" stroke-linecap="butt" stroke-linejoin="miter" stroke-miterlimit="4" stroke-opacity="1" stroke-width="2.5" d="m 218.64645,892.84026 c 0,24.04163 0.7071,24.04163 0.7071,24.04163"/><path id="path3593-70" fill="none" stroke="#000" stroke-dasharray="none" stroke-linecap="butt" stroke-linejoin="miter" stroke-miterlimit="4" stroke-opacity="1" stroke-width="2.5" d="m 243.14645,892.84026 c 0,24.04163 0.7071,24.04163 0.7071,24.04163"/><path id="path3593-8" fill="none" stroke="#000" stroke-dasharray="none" stroke-linecap="butt" stroke-linejoin="miter" stroke-miterlimit="4" stroke-opacity="1" stroke-width="2.5" d="m 265.14645,892.84026 c 0,24.04163 0.7071,24.04163 0.7071,24.04163"/><text id="text3689" x="12" y="22.339" fill="#000" fill-opacity="1" stroke="none" font-family="STIXGeneral" font-size="15" font-stretch="normal" font-style="italic" font-variant="normal" font-weight="normal" transform="translate(0,861.0225)" xml:space="preserve" style="-inkscape-font-specification:Bitstream Vera Sans Oblique"><tspan id="tspan3691" x="12" y="22.339">x</tspan></text><rect id="rect2819-0" width="279" height="23" x="13.711" y="946.229" fill="none" stroke="#000" stroke-dasharray="none" stroke-miterlimit="4" stroke-opacity="1" stroke-width="2.5"/><path id="path3593-25" fill="none" stroke="#000" stroke-dasharray="none" stroke-linecap="butt" stroke-linejoin="miter" stroke-miterlimit="4" stroke-opacity="1" stroke-width="2.5" d="m 39.601887,945.00899 c 0,24.04161 0.707107,24.04161 0.707107,24.04161"/><path id="path3593-7-1" fill="none" stroke="#000" stroke-dasharray="none" stroke-linecap="butt" stroke-linejoin="miter" stroke-miterlimit="4" stroke-opacity="1" stroke-width="2.5" d="m 64.857461,944.70852 c 0,24.04168 0.707107,24.04168 0.707107,24.04168"/><path id="path3593-9-9" fill="none" stroke="#000" stroke-dasharray="none" stroke-linecap="butt" stroke-linejoin="miter" stroke-miterlimit="4" stroke-opacity="1" stroke-width="2.5" d="m 90.857461,944.70852 c 0,24.04168 0.707107,24.04168 0.707107,24.04168"/><path id="path3593-2-7" fill="none" stroke="#000" stroke-dasharray="none" stroke-linecap="butt" stroke-linejoin="miter" stroke-miterlimit="4" stroke-opacity="1" stroke-width="2.5" d="m 116.85746,944.70852 c 0,24.04168 0.7071,24.04168 0.7071,24.04168"/><path id="path3593-3-1" fill="none" stroke="#000" stroke-dasharray="none" stroke-linecap="butt" stroke-linejoin="miter" stroke-miterlimit="4" stroke-opacity="1" stroke-width="2.5" d="m 142.85746,944.70852 c 0,24.04168 0.7071,24.04168 0.7071,24.04168"/><path id="path3593-1-3" fill="none" stroke="#000" stroke-dasharray="none" stroke-linecap="butt" stroke-linejoin="miter" stroke-miterlimit="4" stroke-opacity="1" stroke-width="2.5" d="m 168.85746,944.70852 c 0,24.04168 0.7071,24.04168 0.7071,24.04168"/><path id="path3593-21-1" fill="none" stroke="#000" stroke-dasharray="none" stroke-linecap="butt" stroke-linejoin="miter" stroke-miterlimit="4" stroke-opacity="1" stroke-width="2.5" d="m 194.85746,944.70852 c 0,24.04168 0.7071,24.04168 0.7071,24.04168"/><path id="path3593-4-2" fill="none" stroke="#000" stroke-dasharray="none" stroke-linecap="butt" stroke-linejoin="miter" stroke-miterlimit="4" stroke-opacity="1" stroke-width="2.5" d="m 219.35746,946.70852 c 0,24.04168 0.7071,24.04168 0.7071,24.04168"/><path id="path3593-70-0" fill="none" stroke="#000" stroke-dasharray="none" stroke-linecap="butt" stroke-linejoin="miter" stroke-miterlimit="4" stroke-opacity="1" stroke-width="2.5" d="m 243.85746,946.70852 c 0,24.04168 0.7071,24.04168 0.7071,24.04168"/><path id="path3593-8-6" fill="none" stroke="#000" stroke-dasharray="none" stroke-linecap="butt" stroke-linejoin="miter" stroke-miterlimit="4" stroke-opacity="1" stroke-width="2.5" d="m 265.85746,946.70852 c 0,24.04168 0.7071,24.04168 0.7071,24.04168"/><text id="text3689-8" x="12.711" y="937.229" fill="#000" fill-opacity="1" stroke="none" font-family="STIXGeneral" font-size="15" font-stretch="normal" font-style="italic" font-variant="normal" font-weight="normal" xml:space="preserve" style="-inkscape-font-specification:Bitstream Vera Sans Oblique"><tspan id="tspan3691-7" x="12.711" y="937.229">y</tspan></text><text id="text3799" x="46.849" y="1004.985" fill="#000" fill-opacity="1" stroke="none" font-family="STIXGeneral" font-size="15" font-stretch="normal" font-style="italic" font-variant="normal" font-weight="normal" xml:space="preserve" style="-inkscape-font-specification:Bitstream Vera Sans Oblique"><tspan id="tspan3801" x="46.849" y="1004.985">cache block size</tspan></text><rect id="rect2863" width="169" height="2" x="6" y="987.361" fill="none" stroke="#ff2626" stroke-dasharray="none" stroke-miterlimit="4" stroke-opacity="1" stroke-width="2.5"/></g></svg>