<svg xmlns="http://www.w3.org/2000/svg" xmlns:ns0="http://www.iki.fi/pav/software/textext/" xmlns:svg="http://www.w3.org/2000/svg" id="svg1901" width="395.628" height="250.868" version="1.1"><defs id="defs1903"><marker id="Arrow1Lend" orient="auto" overflow="visible" refX="0" refY="0"><path id="path4423" fill-rule="evenodd" stroke="#000" stroke-width="1pt" marker-start="none" d="M 0,0 5,-5 -12.5,0 5,5 0,0 z" transform="matrix(-0.8,0,0,-0.8,-10,0)"/></marker><marker id="Arrow1Mend" orient="auto" overflow="visible" refX="0" refY="0"><path id="path4429" fill-rule="evenodd" stroke="#000" stroke-width="1pt" marker-start="none" d="M 0,0 5,-5 -12.5,0 5,5 0,0 z" transform="matrix(-0.4,0,0,-0.4,-4,0)"/></marker><marker id="Arrow1Mend-9" orient="auto" overflow="visible" refX="0" refY="0"><path id="path4429-8" fill-rule="evenodd" stroke="#000" stroke-width="1pt" marker-start="none" d="M 0,0 5,-5 -12.5,0 5,5 0,0 z" transform="matrix(-0.4,0,0,-0.4,-4,0)"/></marker></defs><metadata id="metadata1906"/><g id="layer1" transform="translate(-42.995605,-41.103736)"><path id="path3615" fill="none" stroke="#000" stroke-dasharray="none" stroke-miterlimit="4" stroke-opacity="1" stroke-width="5" d="m 118,91.362183 a 25,25 0 1 1 -50,0 25,25 0 1 1 50,0 z" transform="translate(2,58)"/><path id="path3615-4" fill="none" stroke="#000" stroke-dasharray="none" stroke-miterlimit="4" stroke-opacity="1" stroke-width="5" d="m 118,91.362183 a 25,25 0 1 1 -50,0 25,25 0 1 1 50,0 z" transform="translate(147,59)"/><path id="path3647" fill="none" stroke="#000" stroke-dasharray="none" stroke-linecap="butt" stroke-linejoin="miter" stroke-miterlimit="4" stroke-opacity="1" stroke-width="2.5" marker-end="url(#Arrow1Mend)" d="m 107,130.36218 c 63,-31.999997 48,-22 104,7"/><path id="path3615-9" fill="none" stroke="#000" stroke-dasharray="none" stroke-miterlimit="4" stroke-opacity="1" stroke-width="5" d="m 118,91.362183 a 25,25 0 1 1 -50,0 25,25 0 1 1 50,0 z" transform="translate(69.085786,173.10977)"/><path id="path5091" fill="none" stroke="#000" stroke-dasharray="none" stroke-linecap="butt" stroke-linejoin="miter" stroke-miterlimit="4" stroke-opacity="1" stroke-width="2.5" marker-end="url(#Arrow1Mend-9)" d="m 26.870058,111.24594 c 5.656854,42.42641 4.242641,45.25483 42.426407,69.29646" transform="translate(67.5,65.0595)"/><path id="path5676" fill="none" stroke="#000" stroke-dasharray="none" stroke-linecap="butt" stroke-linejoin="miter" stroke-miterlimit="4" stroke-opacity="1" stroke-width="2.5" marker-end="url(#Arrow1Mend-9)" d="m 13,60.91246 c -34,-85.5 -56,-34.5 -10.5,9" transform="translate(67.5,65.0595)"/><g id="g6117" stroke-width="0" transform="matrix(4,0,0,4,44.846424,42.672736)" ns0:page_width="10cm" ns0:text="$P_{ii}$"><g id="g6119"><g id="g6121" transform="translate(0,9.6)"><text id="text6123"><tspan id="tspan6125" x="0" y="-2.156" font-family="STIXGeneral" font-size="12" font-style="italic">P</tspan> <tspan id="tspan6127" x="7.332 9.667" y="-.567" font-family="STIXGeneral" font-size="8.4" font-style="italic">ii</tspan></text></g></g></g><g id="figure_1" stroke-width="0" transform="matrix(4,0,0,4,146,70)" ns0:page_width="10cm" ns0:text="$P_{ij}$"><g id="text_1"><g id="g6211" transform="translate(0,11.28)"><text id="text6213"><tspan id="tspan6215" x="0" y="-4.156" font-family="STIXGeneral" font-size="12" font-style="italic">P</tspan> <tspan id="tspan6217" x="7.332 9.667" y="-2.567" font-family="STIXGeneral" font-size="8.4" font-style="italic">ij</tspan></text></g></g></g><g id="g6299" stroke-width="0" transform="matrix(4,0,0,4,115.9096,189.4284)" ns0:page_width="10cm" ns0:text="$P_{ik}$"><g id="g6301"><g id="g6303" transform="translate(0,9.6)"><text id="text6305"><tspan id="tspan6307" x="0" y="-2.156" font-family="STIXGeneral" font-size="12" font-style="italic">P</tspan> <tspan id="tspan6309" x="7.332 9.667" y="-.567" font-family="STIXGeneral" font-size="8.4" font-style="italic">ik</tspan></text></g></g></g><g id="g6537" stroke-width="0" transform="matrix(4,0,0,4,277.47685,208.50603)" ns0:page_width="10cm" ns0:text="$\\sum_j\\,P_{ij}=1$"><g id="g6539"><g id="g6541" transform="translate(0,21.96)"><text id="text6543"><tspan id="tspan6545" x="0 26.763 35.559" y="-13.844 -11.594 -11.594" font-family="STIXGeneral" font-size="12">∑=1</tspan> <tspan id="tspan6547" x="13.028" y="-11.594" font-family="STIXGeneral" font-size="12" font-style="italic">P</tspan> <tspan id="tspan6549" x="3 20.36 22.695" y="-3.005 -10.005 -10.005" font-family="STIXGeneral" font-size="8.4" font-style="italic">jij</tspan></text></g></g></g><g id="g3117" stroke-width="0" transform="matrix(4,0,0,4,77.97404,137.49324)" ns0:page_width="10cm" ns0:text="$p_{i}$"><g id="g3119"><g id="g3121" transform="translate(0,7.92)"><text id="text3123"><tspan id="tspan3125" x="0" y="-3.703" font-family="STIXGeneral" font-size="12" font-style="italic">p</tspan> <tspan id="tspan3127" x="6.048" y="-2.114" font-family="STIXGeneral" font-size="8.4" font-style="italic">i</tspan></text></g></g></g><g id="g3274" stroke-width="0" transform="matrix(4,0,0,4,223.26443,137.76846)" ns0:page_width="10cm" ns0:text="$p_{j}$"><g id="g3276"><g id="g3278" transform="translate(0,8.76)"><text id="text3280"><tspan id="tspan3282" x="0" y="-4.703" font-family="STIXGeneral" font-size="12" font-style="italic">p</tspan> <tspan id="tspan3284" x="6.048" y="-3.114" font-family="STIXGeneral" font-size="8.4" font-style="italic">j</tspan></text></g></g></g><g id="g3427" stroke-width="0" transform="matrix(4,0,0,4,144.26443,252.76846)" ns0:page_width="10cm" ns0:text="$p_{k}$"><g id="g3429"><g id="g3431" transform="translate(0,7.92)"><text id="text3433"><tspan id="tspan3435" x="0" y="-3.703" font-family="STIXGeneral" font-size="12" font-style="italic">p</tspan> <tspan id="tspan3437" x="6.048" y="-2.114" font-family="STIXGeneral" font-size="8.4" font-style="italic">k</tspan></text></g></g></g></g></svg>